<mxfile host="Electron" agent="Mozilla/5.0 (Windows NT 10.0; Win64; x64) AppleWebKit/537.36 (KHTML, like Gecko) draw.io/26.2.15 Chrome/134.0.6998.205 Electron/35.2.1 Safari/537.36" version="26.2.15" pages="2">
  <diagram name="Logisches Modell" id="YfdkuOndGtr8_6JJJVQj">
    <mxGraphModel dx="1426" dy="849" grid="1" gridSize="10" guides="1" tooltips="1" connect="1" arrows="1" fold="1" page="1" pageScale="1" pageWidth="1169" pageHeight="827" background="none" math="0" shadow="0">
      <root>
        <mxCell id="0" />
        <mxCell id="1" parent="0" />
        <mxCell id="nKQsU5BfmFABiyB_pp4Q-2" value="Spiele" style="swimlane;fontStyle=0;childLayout=stackLayout;horizontal=1;startSize=30;horizontalStack=0;resizeParent=1;resizeParentMax=0;resizeLast=0;collapsible=1;marginBottom=0;whiteSpace=wrap;html=1;" parent="1" vertex="1">
          <mxGeometry x="80" y="50" width="140" height="270" as="geometry" />
        </mxCell>
        <mxCell id="nKQsU5BfmFABiyB_pp4Q-3" value="ID [PK]" style="text;strokeColor=none;fillColor=none;align=left;verticalAlign=middle;spacingLeft=4;spacingRight=4;overflow=hidden;points=[[0,0.5],[1,0.5]];portConstraint=eastwest;rotatable=0;whiteSpace=wrap;html=1;" parent="nKQsU5BfmFABiyB_pp4Q-2" vertex="1">
          <mxGeometry y="30" width="140" height="30" as="geometry" />
        </mxCell>
        <mxCell id="nKQsU5BfmFABiyB_pp4Q-4" value="Spielname [UK]" style="text;strokeColor=none;fillColor=none;align=left;verticalAlign=middle;spacingLeft=4;spacingRight=4;overflow=hidden;points=[[0,0.5],[1,0.5]];portConstraint=eastwest;rotatable=0;whiteSpace=wrap;html=1;" parent="nKQsU5BfmFABiyB_pp4Q-2" vertex="1">
          <mxGeometry y="60" width="140" height="30" as="geometry" />
        </mxCell>
        <mxCell id="nKQsU5BfmFABiyB_pp4Q-5" value="Herausgeber_ID [FK]" style="text;strokeColor=none;fillColor=none;align=left;verticalAlign=middle;spacingLeft=4;spacingRight=4;overflow=hidden;points=[[0,0.5],[1,0.5]];portConstraint=eastwest;rotatable=0;whiteSpace=wrap;html=1;" parent="nKQsU5BfmFABiyB_pp4Q-2" vertex="1">
          <mxGeometry y="90" width="140" height="30" as="geometry" />
        </mxCell>
        <mxCell id="nKQsU5BfmFABiyB_pp4Q-24" value="Kategorie_ID&amp;nbsp;[FK]" style="text;strokeColor=none;fillColor=none;align=left;verticalAlign=middle;spacingLeft=4;spacingRight=4;overflow=hidden;points=[[0,0.5],[1,0.5]];portConstraint=eastwest;rotatable=0;whiteSpace=wrap;html=1;" parent="nKQsU5BfmFABiyB_pp4Q-2" vertex="1">
          <mxGeometry y="120" width="140" height="30" as="geometry" />
        </mxCell>
        <mxCell id="nKQsU5BfmFABiyB_pp4Q-36" value="max. Level" style="text;strokeColor=none;fillColor=none;align=left;verticalAlign=middle;spacingLeft=4;spacingRight=4;overflow=hidden;points=[[0,0.5],[1,0.5]];portConstraint=eastwest;rotatable=0;whiteSpace=wrap;html=1;" parent="nKQsU5BfmFABiyB_pp4Q-2" vertex="1">
          <mxGeometry y="150" width="140" height="30" as="geometry" />
        </mxCell>
        <mxCell id="nKQsU5BfmFABiyB_pp4Q-22" value="Onlinefunktion (y/n)" style="text;strokeColor=none;fillColor=none;align=left;verticalAlign=middle;spacingLeft=4;spacingRight=4;overflow=hidden;points=[[0,0.5],[1,0.5]];portConstraint=eastwest;rotatable=0;whiteSpace=wrap;html=1;" parent="nKQsU5BfmFABiyB_pp4Q-2" vertex="1">
          <mxGeometry y="180" width="140" height="30" as="geometry" />
        </mxCell>
        <mxCell id="nKQsU5BfmFABiyB_pp4Q-43" value="Erscheinungsjahr" style="text;strokeColor=none;fillColor=none;align=left;verticalAlign=middle;spacingLeft=4;spacingRight=4;overflow=hidden;points=[[0,0.5],[1,0.5]];portConstraint=eastwest;rotatable=0;whiteSpace=wrap;html=1;" parent="nKQsU5BfmFABiyB_pp4Q-2" vertex="1">
          <mxGeometry y="210" width="140" height="30" as="geometry" />
        </mxCell>
        <mxCell id="nKQsU5BfmFABiyB_pp4Q-30" value="Altersfreigabe" style="text;strokeColor=none;fillColor=none;align=left;verticalAlign=middle;spacingLeft=4;spacingRight=4;overflow=hidden;points=[[0,0.5],[1,0.5]];portConstraint=eastwest;rotatable=0;whiteSpace=wrap;html=1;" parent="nKQsU5BfmFABiyB_pp4Q-2" vertex="1">
          <mxGeometry y="240" width="140" height="30" as="geometry" />
        </mxCell>
        <mxCell id="nKQsU5BfmFABiyB_pp4Q-9" value="Benutzer" style="swimlane;fontStyle=0;childLayout=stackLayout;horizontal=1;startSize=30;horizontalStack=0;resizeParent=1;resizeParentMax=0;resizeLast=0;collapsible=1;marginBottom=0;whiteSpace=wrap;html=1;" parent="1" vertex="1">
          <mxGeometry x="950" y="20" width="140" height="330" as="geometry" />
        </mxCell>
        <mxCell id="nKQsU5BfmFABiyB_pp4Q-10" value="ID [PK]" style="text;strokeColor=none;fillColor=none;align=left;verticalAlign=middle;spacingLeft=4;spacingRight=4;overflow=hidden;points=[[0,0.5],[1,0.5]];portConstraint=eastwest;rotatable=0;whiteSpace=wrap;html=1;" parent="nKQsU5BfmFABiyB_pp4Q-9" vertex="1">
          <mxGeometry y="30" width="140" height="30" as="geometry" />
        </mxCell>
        <mxCell id="nKQsU5BfmFABiyB_pp4Q-31" value="Vorname" style="text;strokeColor=none;fillColor=none;align=left;verticalAlign=middle;spacingLeft=4;spacingRight=4;overflow=hidden;points=[[0,0.5],[1,0.5]];portConstraint=eastwest;rotatable=0;whiteSpace=wrap;html=1;" parent="nKQsU5BfmFABiyB_pp4Q-9" vertex="1">
          <mxGeometry y="60" width="140" height="30" as="geometry" />
        </mxCell>
        <mxCell id="nKQsU5BfmFABiyB_pp4Q-11" value="Benutzername&amp;nbsp;[UK]" style="text;strokeColor=none;fillColor=none;align=left;verticalAlign=middle;spacingLeft=4;spacingRight=4;overflow=hidden;points=[[0,0.5],[1,0.5]];portConstraint=eastwest;rotatable=0;whiteSpace=wrap;html=1;" parent="nKQsU5BfmFABiyB_pp4Q-9" vertex="1">
          <mxGeometry y="90" width="140" height="30" as="geometry" />
        </mxCell>
        <mxCell id="Ll8_rYvrmY97XpLbqkg0-10" value="Passwort (Hash)" style="text;strokeColor=none;fillColor=none;align=left;verticalAlign=middle;spacingLeft=4;spacingRight=4;overflow=hidden;points=[[0,0.5],[1,0.5]];portConstraint=eastwest;rotatable=0;whiteSpace=wrap;html=1;" parent="nKQsU5BfmFABiyB_pp4Q-9" vertex="1">
          <mxGeometry y="120" width="140" height="30" as="geometry" />
        </mxCell>
        <mxCell id="nKQsU5BfmFABiyB_pp4Q-25" value="E-Mail" style="text;strokeColor=none;fillColor=none;align=left;verticalAlign=middle;spacingLeft=4;spacingRight=4;overflow=hidden;points=[[0,0.5],[1,0.5]];portConstraint=eastwest;rotatable=0;whiteSpace=wrap;html=1;" parent="nKQsU5BfmFABiyB_pp4Q-9" vertex="1">
          <mxGeometry y="150" width="140" height="30" as="geometry" />
        </mxCell>
        <mxCell id="nKQsU5BfmFABiyB_pp4Q-12" value="Geschlecht_ID&amp;nbsp;[FK]" style="text;strokeColor=none;fillColor=none;align=left;verticalAlign=middle;spacingLeft=4;spacingRight=4;overflow=hidden;points=[[0,0.5],[1,0.5]];portConstraint=eastwest;rotatable=0;whiteSpace=wrap;html=1;" parent="nKQsU5BfmFABiyB_pp4Q-9" vertex="1">
          <mxGeometry y="180" width="140" height="30" as="geometry" />
        </mxCell>
        <mxCell id="Ll8_rYvrmY97XpLbqkg0-12" value="Land_ID&amp;nbsp;[FK]" style="text;strokeColor=none;fillColor=none;align=left;verticalAlign=middle;spacingLeft=4;spacingRight=4;overflow=hidden;points=[[0,0.5],[1,0.5]];portConstraint=eastwest;rotatable=0;whiteSpace=wrap;html=1;" parent="nKQsU5BfmFABiyB_pp4Q-9" vertex="1">
          <mxGeometry y="210" width="140" height="30" as="geometry" />
        </mxCell>
        <mxCell id="Ll8_rYvrmY97XpLbqkg0-11" value="Sprache" style="text;strokeColor=none;fillColor=none;align=left;verticalAlign=middle;spacingLeft=4;spacingRight=4;overflow=hidden;points=[[0,0.5],[1,0.5]];portConstraint=eastwest;rotatable=0;whiteSpace=wrap;html=1;" parent="nKQsU5BfmFABiyB_pp4Q-9" vertex="1">
          <mxGeometry y="240" width="140" height="30" as="geometry" />
        </mxCell>
        <mxCell id="nKQsU5BfmFABiyB_pp4Q-13" value="Geburtsdatum" style="text;strokeColor=none;fillColor=none;align=left;verticalAlign=middle;spacingLeft=4;spacingRight=4;overflow=hidden;points=[[0,0.5],[1,0.5]];portConstraint=eastwest;rotatable=0;whiteSpace=wrap;html=1;" parent="nKQsU5BfmFABiyB_pp4Q-9" vertex="1">
          <mxGeometry y="270" width="140" height="30" as="geometry" />
        </mxCell>
        <mxCell id="nKQsU5BfmFABiyB_pp4Q-37" value="Bildnummer" style="text;strokeColor=none;fillColor=none;align=left;verticalAlign=middle;spacingLeft=4;spacingRight=4;overflow=hidden;points=[[0,0.5],[1,0.5]];portConstraint=eastwest;rotatable=0;whiteSpace=wrap;html=1;" parent="nKQsU5BfmFABiyB_pp4Q-9" vertex="1">
          <mxGeometry y="300" width="140" height="30" as="geometry" />
        </mxCell>
        <mxCell id="nKQsU5BfmFABiyB_pp4Q-14" value="Spieldaten" style="swimlane;fontStyle=0;childLayout=stackLayout;horizontal=1;startSize=30;horizontalStack=0;resizeParent=1;resizeParentMax=0;resizeLast=0;collapsible=1;marginBottom=0;whiteSpace=wrap;html=1;" parent="1" vertex="1">
          <mxGeometry x="480" y="90" width="140" height="300" as="geometry" />
        </mxCell>
        <mxCell id="nKQsU5BfmFABiyB_pp4Q-15" value="Spiel_ID&amp;nbsp;[FK]" style="text;strokeColor=none;fillColor=none;align=left;verticalAlign=middle;spacingLeft=4;spacingRight=4;overflow=hidden;points=[[0,0.5],[1,0.5]];portConstraint=eastwest;rotatable=0;whiteSpace=wrap;html=1;" parent="nKQsU5BfmFABiyB_pp4Q-14" vertex="1">
          <mxGeometry y="30" width="140" height="30" as="geometry" />
        </mxCell>
        <mxCell id="nKQsU5BfmFABiyB_pp4Q-16" value="Benutzer_ID&amp;nbsp;[FK]" style="text;strokeColor=none;fillColor=none;align=left;verticalAlign=middle;spacingLeft=4;spacingRight=4;overflow=hidden;points=[[0,0.5],[1,0.5]];portConstraint=eastwest;rotatable=0;whiteSpace=wrap;html=1;" parent="nKQsU5BfmFABiyB_pp4Q-14" vertex="1">
          <mxGeometry y="60" width="140" height="30" as="geometry" />
        </mxCell>
        <mxCell id="nKQsU5BfmFABiyB_pp4Q-23" value="Plattform_ID&amp;nbsp;[FK]" style="text;strokeColor=none;fillColor=none;align=left;verticalAlign=middle;spacingLeft=4;spacingRight=4;overflow=hidden;points=[[0,0.5],[1,0.5]];portConstraint=eastwest;rotatable=0;whiteSpace=wrap;html=1;" parent="nKQsU5BfmFABiyB_pp4Q-14" vertex="1">
          <mxGeometry y="90" width="140" height="30" as="geometry" />
        </mxCell>
        <mxCell id="nKQsU5BfmFABiyB_pp4Q-17" value="Level" style="text;strokeColor=none;fillColor=none;align=left;verticalAlign=middle;spacingLeft=4;spacingRight=4;overflow=hidden;points=[[0,0.5],[1,0.5]];portConstraint=eastwest;rotatable=0;whiteSpace=wrap;html=1;" parent="nKQsU5BfmFABiyB_pp4Q-14" vertex="1">
          <mxGeometry y="120" width="140" height="30" as="geometry" />
        </mxCell>
        <mxCell id="nKQsU5BfmFABiyB_pp4Q-18" value="Spielzeit (in h)" style="text;strokeColor=none;fillColor=none;align=left;verticalAlign=middle;spacingLeft=4;spacingRight=4;overflow=hidden;points=[[0,0.5],[1,0.5]];portConstraint=eastwest;rotatable=0;whiteSpace=wrap;html=1;" parent="nKQsU5BfmFABiyB_pp4Q-14" vertex="1">
          <mxGeometry y="150" width="140" height="30" as="geometry" />
        </mxCell>
        <mxCell id="nKQsU5BfmFABiyB_pp4Q-21" value="Eigenbewertung (1-10)" style="text;strokeColor=none;fillColor=none;align=left;verticalAlign=middle;spacingLeft=4;spacingRight=4;overflow=hidden;points=[[0,0.5],[1,0.5]];portConstraint=eastwest;rotatable=0;whiteSpace=wrap;html=1;" parent="nKQsU5BfmFABiyB_pp4Q-14" vertex="1">
          <mxGeometry y="180" width="140" height="30" as="geometry" />
        </mxCell>
        <mxCell id="Ll8_rYvrmY97XpLbqkg0-9" value="Startdatum (Datum)" style="text;strokeColor=none;fillColor=none;align=left;verticalAlign=middle;spacingLeft=4;spacingRight=4;overflow=hidden;points=[[0,0.5],[1,0.5]];portConstraint=eastwest;rotatable=0;whiteSpace=wrap;html=1;" parent="nKQsU5BfmFABiyB_pp4Q-14" vertex="1">
          <mxGeometry y="210" width="140" height="30" as="geometry" />
        </mxCell>
        <mxCell id="nKQsU5BfmFABiyB_pp4Q-42" value="Durchgespielt (Datum)" style="text;strokeColor=none;fillColor=none;align=left;verticalAlign=middle;spacingLeft=4;spacingRight=4;overflow=hidden;points=[[0,0.5],[1,0.5]];portConstraint=eastwest;rotatable=0;whiteSpace=wrap;html=1;" parent="nKQsU5BfmFABiyB_pp4Q-14" vertex="1">
          <mxGeometry y="240" width="140" height="30" as="geometry" />
        </mxCell>
        <mxCell id="Ll8_rYvrmY97XpLbqkg0-13" value="Empfohlen (y/n)" style="text;strokeColor=none;fillColor=none;align=left;verticalAlign=middle;spacingLeft=4;spacingRight=4;overflow=hidden;points=[[0,0.5],[1,0.5]];portConstraint=eastwest;rotatable=0;whiteSpace=wrap;html=1;" parent="nKQsU5BfmFABiyB_pp4Q-14" vertex="1">
          <mxGeometry y="270" width="140" height="30" as="geometry" />
        </mxCell>
        <mxCell id="nKQsU5BfmFABiyB_pp4Q-27" value="Plattform" style="swimlane;fontStyle=0;childLayout=stackLayout;horizontal=1;startSize=30;horizontalStack=0;resizeParent=1;resizeParentMax=0;resizeLast=0;collapsible=1;marginBottom=0;whiteSpace=wrap;html=1;" parent="1" vertex="1">
          <mxGeometry x="760" y="570" width="140" height="90" as="geometry">
            <mxRectangle x="950" y="400" width="100" height="30" as="alternateBounds" />
          </mxGeometry>
        </mxCell>
        <mxCell id="nKQsU5BfmFABiyB_pp4Q-28" value="ID [PK]" style="text;strokeColor=none;fillColor=none;align=left;verticalAlign=middle;spacingLeft=4;spacingRight=4;overflow=hidden;points=[[0,0.5],[1,0.5]];portConstraint=eastwest;rotatable=0;whiteSpace=wrap;html=1;" parent="nKQsU5BfmFABiyB_pp4Q-27" vertex="1">
          <mxGeometry y="30" width="140" height="30" as="geometry" />
        </mxCell>
        <mxCell id="nKQsU5BfmFABiyB_pp4Q-29" value="Name&amp;nbsp;[UK]" style="text;strokeColor=none;fillColor=none;align=left;verticalAlign=middle;spacingLeft=4;spacingRight=4;overflow=hidden;points=[[0,0.5],[1,0.5]];portConstraint=eastwest;rotatable=0;whiteSpace=wrap;html=1;" parent="nKQsU5BfmFABiyB_pp4Q-27" vertex="1">
          <mxGeometry y="60" width="140" height="30" as="geometry" />
        </mxCell>
        <mxCell id="nKQsU5BfmFABiyB_pp4Q-33" value="Spielkategorie" style="swimlane;fontStyle=0;childLayout=stackLayout;horizontal=1;startSize=30;horizontalStack=0;resizeParent=1;resizeParentMax=0;resizeLast=0;collapsible=1;marginBottom=0;whiteSpace=wrap;html=1;" parent="1" vertex="1">
          <mxGeometry x="80" y="490" width="140" height="90" as="geometry" />
        </mxCell>
        <mxCell id="nKQsU5BfmFABiyB_pp4Q-34" value="ID [PK]" style="text;strokeColor=none;fillColor=none;align=left;verticalAlign=middle;spacingLeft=4;spacingRight=4;overflow=hidden;points=[[0,0.5],[1,0.5]];portConstraint=eastwest;rotatable=0;whiteSpace=wrap;html=1;" parent="nKQsU5BfmFABiyB_pp4Q-33" vertex="1">
          <mxGeometry y="30" width="140" height="30" as="geometry" />
        </mxCell>
        <mxCell id="nKQsU5BfmFABiyB_pp4Q-35" value="Name&amp;nbsp;[UK]" style="text;strokeColor=none;fillColor=none;align=left;verticalAlign=middle;spacingLeft=4;spacingRight=4;overflow=hidden;points=[[0,0.5],[1,0.5]];portConstraint=eastwest;rotatable=0;whiteSpace=wrap;html=1;" parent="nKQsU5BfmFABiyB_pp4Q-33" vertex="1">
          <mxGeometry y="60" width="140" height="30" as="geometry" />
        </mxCell>
        <mxCell id="nKQsU5BfmFABiyB_pp4Q-41" style="edgeStyle=orthogonalEdgeStyle;rounded=0;orthogonalLoop=1;jettySize=auto;html=1;endArrow=none;endFill=0;" parent="1" source="nKQsU5BfmFABiyB_pp4Q-3" target="nKQsU5BfmFABiyB_pp4Q-15" edge="1">
          <mxGeometry relative="1" as="geometry" />
        </mxCell>
        <mxCell id="nKQsU5BfmFABiyB_pp4Q-48" style="edgeStyle=orthogonalEdgeStyle;rounded=0;orthogonalLoop=1;jettySize=auto;html=1;entryX=1;entryY=0.5;entryDx=0;entryDy=0;endArrow=none;endFill=0;" parent="1" source="nKQsU5BfmFABiyB_pp4Q-10" target="nKQsU5BfmFABiyB_pp4Q-16" edge="1">
          <mxGeometry relative="1" as="geometry">
            <Array as="points">
              <mxPoint x="710" y="65" />
              <mxPoint x="710" y="165" />
            </Array>
          </mxGeometry>
        </mxCell>
        <mxCell id="0s7iuWoLHfclav60qxuF-2" style="edgeStyle=orthogonalEdgeStyle;rounded=0;orthogonalLoop=1;jettySize=auto;html=1;entryX=1;entryY=0.5;entryDx=0;entryDy=0;endArrow=none;endFill=0;" parent="1" source="nKQsU5BfmFABiyB_pp4Q-34" target="nKQsU5BfmFABiyB_pp4Q-24" edge="1">
          <mxGeometry relative="1" as="geometry">
            <Array as="points">
              <mxPoint x="270" y="535" />
              <mxPoint x="270" y="185" />
            </Array>
          </mxGeometry>
        </mxCell>
        <mxCell id="0s7iuWoLHfclav60qxuF-3" style="edgeStyle=orthogonalEdgeStyle;rounded=0;orthogonalLoop=1;jettySize=auto;html=1;endArrow=none;endFill=0;" parent="1" source="nKQsU5BfmFABiyB_pp4Q-28" target="nKQsU5BfmFABiyB_pp4Q-23" edge="1">
          <mxGeometry relative="1" as="geometry">
            <Array as="points">
              <mxPoint x="710" y="615" />
              <mxPoint x="710" y="195" />
            </Array>
          </mxGeometry>
        </mxCell>
        <mxCell id="nKQsU5BfmFABiyB_pp4Q-38" value="---" style="text;strokeColor=none;fillColor=none;align=left;verticalAlign=middle;spacingLeft=4;spacingRight=4;overflow=hidden;points=[[0,0.5],[1,0.5]];portConstraint=eastwest;rotatable=0;whiteSpace=wrap;html=1;" parent="1" vertex="1">
          <mxGeometry x="120" y="760" width="140" height="30" as="geometry" />
        </mxCell>
        <mxCell id="nKQsU5BfmFABiyB_pp4Q-32" value="---" style="text;strokeColor=none;fillColor=none;align=left;verticalAlign=middle;spacingLeft=4;spacingRight=4;overflow=hidden;points=[[0,0.5],[1,0.5]];portConstraint=eastwest;rotatable=0;whiteSpace=wrap;html=1;" parent="1" vertex="1">
          <mxGeometry x="560" y="770" width="140" height="30" as="geometry" />
        </mxCell>
        <mxCell id="IzuA51_JtZp4UO2K9cSj-1" value="Herausgeber" style="swimlane;fontStyle=0;childLayout=stackLayout;horizontal=1;startSize=30;horizontalStack=0;resizeParent=1;resizeParentMax=0;resizeLast=0;collapsible=1;marginBottom=0;whiteSpace=wrap;html=1;" parent="1" vertex="1">
          <mxGeometry x="80" y="360" width="140" height="90" as="geometry" />
        </mxCell>
        <mxCell id="IzuA51_JtZp4UO2K9cSj-2" value="ID [PK]" style="text;strokeColor=none;fillColor=none;align=left;verticalAlign=middle;spacingLeft=4;spacingRight=4;overflow=hidden;points=[[0,0.5],[1,0.5]];portConstraint=eastwest;rotatable=0;whiteSpace=wrap;html=1;" parent="IzuA51_JtZp4UO2K9cSj-1" vertex="1">
          <mxGeometry y="30" width="140" height="30" as="geometry" />
        </mxCell>
        <mxCell id="IzuA51_JtZp4UO2K9cSj-4" value="Name&amp;nbsp;[UK]" style="text;strokeColor=none;fillColor=none;align=left;verticalAlign=middle;spacingLeft=4;spacingRight=4;overflow=hidden;points=[[0,0.5],[1,0.5]];portConstraint=eastwest;rotatable=0;whiteSpace=wrap;html=1;" parent="IzuA51_JtZp4UO2K9cSj-1" vertex="1">
          <mxGeometry y="60" width="140" height="30" as="geometry" />
        </mxCell>
        <mxCell id="IzuA51_JtZp4UO2K9cSj-6" style="edgeStyle=orthogonalEdgeStyle;rounded=0;orthogonalLoop=1;jettySize=auto;html=1;exitX=0;exitY=0.5;exitDx=0;exitDy=0;entryX=0;entryY=0.5;entryDx=0;entryDy=0;endArrow=none;endFill=0;" parent="1" source="IzuA51_JtZp4UO2K9cSj-2" target="nKQsU5BfmFABiyB_pp4Q-5" edge="1">
          <mxGeometry relative="1" as="geometry">
            <Array as="points">
              <mxPoint x="40" y="405" />
              <mxPoint x="40" y="155" />
            </Array>
          </mxGeometry>
        </mxCell>
        <mxCell id="IzuA51_JtZp4UO2K9cSj-7" value="Land" style="swimlane;fontStyle=0;childLayout=stackLayout;horizontal=1;startSize=30;horizontalStack=0;resizeParent=1;resizeParentMax=0;resizeLast=0;collapsible=1;marginBottom=0;whiteSpace=wrap;html=1;" parent="1" vertex="1">
          <mxGeometry x="950" y="570" width="140" height="90" as="geometry">
            <mxRectangle x="950" y="400" width="100" height="30" as="alternateBounds" />
          </mxGeometry>
        </mxCell>
        <mxCell id="IzuA51_JtZp4UO2K9cSj-8" value="ID [PK]" style="text;strokeColor=none;fillColor=none;align=left;verticalAlign=middle;spacingLeft=4;spacingRight=4;overflow=hidden;points=[[0,0.5],[1,0.5]];portConstraint=eastwest;rotatable=0;whiteSpace=wrap;html=1;" parent="IzuA51_JtZp4UO2K9cSj-7" vertex="1">
          <mxGeometry y="30" width="140" height="30" as="geometry" />
        </mxCell>
        <mxCell id="IzuA51_JtZp4UO2K9cSj-9" value="Name&amp;nbsp;[UK]" style="text;strokeColor=none;fillColor=none;align=left;verticalAlign=middle;spacingLeft=4;spacingRight=4;overflow=hidden;points=[[0,0.5],[1,0.5]];portConstraint=eastwest;rotatable=0;whiteSpace=wrap;html=1;" parent="IzuA51_JtZp4UO2K9cSj-7" vertex="1">
          <mxGeometry y="60" width="140" height="30" as="geometry" />
        </mxCell>
        <mxCell id="IzuA51_JtZp4UO2K9cSj-11" value="Geschlecht" style="swimlane;fontStyle=0;childLayout=stackLayout;horizontal=1;startSize=30;horizontalStack=0;resizeParent=1;resizeParentMax=0;resizeLast=0;collapsible=1;marginBottom=0;whiteSpace=wrap;html=1;" parent="1" vertex="1">
          <mxGeometry x="950" y="414" width="140" height="90" as="geometry">
            <mxRectangle x="950" y="400" width="100" height="30" as="alternateBounds" />
          </mxGeometry>
        </mxCell>
        <mxCell id="IzuA51_JtZp4UO2K9cSj-12" value="ID [PK]" style="text;strokeColor=none;fillColor=none;align=left;verticalAlign=middle;spacingLeft=4;spacingRight=4;overflow=hidden;points=[[0,0.5],[1,0.5]];portConstraint=eastwest;rotatable=0;whiteSpace=wrap;html=1;" parent="IzuA51_JtZp4UO2K9cSj-11" vertex="1">
          <mxGeometry y="30" width="140" height="30" as="geometry" />
        </mxCell>
        <mxCell id="IzuA51_JtZp4UO2K9cSj-13" value="Name&amp;nbsp;[UK]" style="text;strokeColor=none;fillColor=none;align=left;verticalAlign=middle;spacingLeft=4;spacingRight=4;overflow=hidden;points=[[0,0.5],[1,0.5]];portConstraint=eastwest;rotatable=0;whiteSpace=wrap;html=1;" parent="IzuA51_JtZp4UO2K9cSj-11" vertex="1">
          <mxGeometry y="60" width="140" height="30" as="geometry" />
        </mxCell>
        <mxCell id="GI6SF_CtIjZZqzCGXID7-3" style="edgeStyle=orthogonalEdgeStyle;rounded=0;orthogonalLoop=1;jettySize=auto;html=1;entryX=0;entryY=0.5;entryDx=0;entryDy=0;endArrow=none;startFill=0;" edge="1" parent="1" source="IzuA51_JtZp4UO2K9cSj-12" target="nKQsU5BfmFABiyB_pp4Q-12">
          <mxGeometry relative="1" as="geometry">
            <Array as="points">
              <mxPoint x="910" y="459" />
              <mxPoint x="910" y="215" />
            </Array>
          </mxGeometry>
        </mxCell>
        <mxCell id="GI6SF_CtIjZZqzCGXID7-4" style="edgeStyle=orthogonalEdgeStyle;rounded=0;orthogonalLoop=1;jettySize=auto;html=1;entryX=1;entryY=0.5;entryDx=0;entryDy=0;endArrow=none;startFill=0;" edge="1" parent="1" source="IzuA51_JtZp4UO2K9cSj-8" target="Ll8_rYvrmY97XpLbqkg0-12">
          <mxGeometry relative="1" as="geometry">
            <Array as="points">
              <mxPoint x="1130" y="615" />
              <mxPoint x="1130" y="245" />
            </Array>
          </mxGeometry>
        </mxCell>
        <mxCell id="GUNByDCEdrcCeqgM0yce-1" value="" style="shape=curlyBracket;whiteSpace=wrap;html=1;rounded=1;labelPosition=left;verticalLabelPosition=middle;align=right;verticalAlign=middle;" vertex="1" parent="1">
          <mxGeometry x="460" y="130" width="20" height="70" as="geometry" />
        </mxCell>
        <mxCell id="GUNByDCEdrcCeqgM0yce-2" value="[UK]" style="text;html=1;align=center;verticalAlign=middle;resizable=0;points=[];autosize=1;strokeColor=none;fillColor=none;" vertex="1" parent="1">
          <mxGeometry x="420" y="150" width="50" height="30" as="geometry" />
        </mxCell>
      </root>
    </mxGraphModel>
  </diagram>
  <diagram id="xvdcUwB9AWY-STHWBOZz" name="ERM - Semantisches Modell">
    <mxGraphModel dx="1426" dy="849" grid="1" gridSize="10" guides="1" tooltips="1" connect="1" arrows="1" fold="1" page="1" pageScale="1" pageWidth="1169" pageHeight="827" math="0" shadow="0">
      <root>
        <mxCell id="0" />
        <mxCell id="1" parent="0" />
        <mxCell id="JRyliqt_3TO3lA8H6NYk-3" style="edgeStyle=orthogonalEdgeStyle;rounded=0;orthogonalLoop=1;jettySize=auto;html=1;entryX=0.5;entryY=0;entryDx=0;entryDy=0;endArrow=none;startFill=0;" edge="1" parent="1" source="LqFIUGVbw8sw-49HCYzh-2" target="u96_dr-zxeYHkRB0BwEC-4">
          <mxGeometry relative="1" as="geometry" />
        </mxCell>
        <mxCell id="LqFIUGVbw8sw-49HCYzh-2" value="Spiel&lt;br&gt;hat" style="shape=rhombus;perimeter=rhombusPerimeter;whiteSpace=wrap;html=1;align=center;" vertex="1" parent="1">
          <mxGeometry x="487.5" y="430" width="85" height="60" as="geometry" />
        </mxCell>
        <mxCell id="0Wor8GXt6FMR4Ik6QTlM-6" style="edgeStyle=orthogonalEdgeStyle;rounded=0;orthogonalLoop=1;jettySize=auto;html=1;entryX=1;entryY=0.5;entryDx=0;entryDy=0;endArrow=none;startFill=0;" edge="1" parent="1" source="oKWbrkQQpkRKA_NlGpjj-1" target="0Wor8GXt6FMR4Ik6QTlM-2">
          <mxGeometry relative="1" as="geometry" />
        </mxCell>
        <mxCell id="0Wor8GXt6FMR4Ik6QTlM-10" style="edgeStyle=orthogonalEdgeStyle;rounded=0;orthogonalLoop=1;jettySize=auto;html=1;entryX=0.5;entryY=1;entryDx=0;entryDy=0;endArrow=none;startFill=0;" edge="1" parent="1" source="oKWbrkQQpkRKA_NlGpjj-1" target="0Wor8GXt6FMR4Ik6QTlM-5">
          <mxGeometry relative="1" as="geometry">
            <Array as="points">
              <mxPoint x="953" y="360" />
              <mxPoint x="953" y="340" />
            </Array>
          </mxGeometry>
        </mxCell>
        <mxCell id="0Wor8GXt6FMR4Ik6QTlM-11" style="edgeStyle=orthogonalEdgeStyle;rounded=0;orthogonalLoop=1;jettySize=auto;html=1;entryX=0.5;entryY=0;entryDx=0;entryDy=0;endArrow=none;startFill=0;" edge="1" parent="1" source="oKWbrkQQpkRKA_NlGpjj-1" target="0Wor8GXt6FMR4Ik6QTlM-4">
          <mxGeometry relative="1" as="geometry" />
        </mxCell>
        <mxCell id="oKWbrkQQpkRKA_NlGpjj-1" value="Benutzer" style="whiteSpace=wrap;html=1;align=center;" vertex="1" parent="1">
          <mxGeometry x="770" y="340" width="100" height="40" as="geometry" />
        </mxCell>
        <mxCell id="0Wor8GXt6FMR4Ik6QTlM-9" style="edgeStyle=orthogonalEdgeStyle;rounded=0;orthogonalLoop=1;jettySize=auto;html=1;endArrow=none;startFill=0;" edge="1" parent="1" source="EVIq-oT2bdL4-TLl1Oz5-2" target="0Wor8GXt6FMR4Ik6QTlM-1">
          <mxGeometry relative="1" as="geometry" />
        </mxCell>
        <mxCell id="0Wor8GXt6FMR4Ik6QTlM-15" style="edgeStyle=orthogonalEdgeStyle;rounded=0;orthogonalLoop=1;jettySize=auto;html=1;endArrow=none;startFill=0;" edge="1" parent="1" source="EVIq-oT2bdL4-TLl1Oz5-2" target="0Wor8GXt6FMR4Ik6QTlM-3">
          <mxGeometry relative="1" as="geometry" />
        </mxCell>
        <mxCell id="0Wor8GXt6FMR4Ik6QTlM-26" style="edgeStyle=orthogonalEdgeStyle;rounded=0;orthogonalLoop=1;jettySize=auto;html=1;entryX=1;entryY=0.5;entryDx=0;entryDy=0;endArrow=none;startFill=0;" edge="1" parent="1" source="EVIq-oT2bdL4-TLl1Oz5-2" target="0Wor8GXt6FMR4Ik6QTlM-19">
          <mxGeometry relative="1" as="geometry" />
        </mxCell>
        <mxCell id="EVIq-oT2bdL4-TLl1Oz5-2" value="Spiel" style="whiteSpace=wrap;html=1;align=center;" vertex="1" parent="1">
          <mxGeometry x="220" y="340" width="100" height="40" as="geometry" />
        </mxCell>
        <mxCell id="EVIq-oT2bdL4-TLl1Oz5-3" value="Herausgeber" style="whiteSpace=wrap;html=1;align=center;" vertex="1" parent="1">
          <mxGeometry x="60" y="50" width="100" height="40" as="geometry" />
        </mxCell>
        <mxCell id="u96_dr-zxeYHkRB0BwEC-2" value="Geschlecht" style="whiteSpace=wrap;html=1;align=center;" vertex="1" parent="1">
          <mxGeometry x="990" y="210" width="100" height="40" as="geometry" />
        </mxCell>
        <mxCell id="u96_dr-zxeYHkRB0BwEC-3" value="Land&lt;span style=&quot;color: rgba(0, 0, 0, 0); font-family: monospace; font-size: 0px; text-align: start; text-wrap-mode: nowrap;&quot;&gt;%3CmxGraphModel%3E%3Croot%3E%3CmxCell%20id%3D%220%22%2F%3E%3CmxCell%20id%3D%221%22%20parent%3D%220%22%2F%3E%3CmxCell%20id%3D%222%22%20value%3D%22Spiel%22%20style%3D%22whiteSpace%3Dwrap%3Bhtml%3D1%3Balign%3Dcenter%3B%22%20vertex%3D%221%22%20parent%3D%221%22%3E%3CmxGeometry%20x%3D%22480%22%20y%3D%2270%22%20width%3D%22100%22%20height%3D%2240%22%20as%3D%22geometry%22%2F%3E%3C%2FmxCell%3E%3C%2Froot%3E%3C%2FmxGraphModel%3E&lt;/span&gt;" style="whiteSpace=wrap;html=1;align=center;" vertex="1" parent="1">
          <mxGeometry x="930" y="450" width="100" height="40" as="geometry" />
        </mxCell>
        <mxCell id="u96_dr-zxeYHkRB0BwEC-4" value="Plattorm" style="whiteSpace=wrap;html=1;align=center;" vertex="1" parent="1">
          <mxGeometry x="480" y="540" width="100" height="40" as="geometry" />
        </mxCell>
        <mxCell id="u96_dr-zxeYHkRB0BwEC-6" value="Spielkategorie" style="whiteSpace=wrap;html=1;align=center;" vertex="1" parent="1">
          <mxGeometry x="20" y="250" width="100" height="40" as="geometry" />
        </mxCell>
        <mxCell id="0Wor8GXt6FMR4Ik6QTlM-7" style="edgeStyle=orthogonalEdgeStyle;rounded=0;orthogonalLoop=1;jettySize=auto;html=1;entryX=0;entryY=0.5;entryDx=0;entryDy=0;endArrow=none;startFill=0;" edge="1" parent="1" source="u96_dr-zxeYHkRB0BwEC-7" target="0Wor8GXt6FMR4Ik6QTlM-2">
          <mxGeometry relative="1" as="geometry" />
        </mxCell>
        <mxCell id="JRyliqt_3TO3lA8H6NYk-2" style="edgeStyle=orthogonalEdgeStyle;rounded=0;orthogonalLoop=1;jettySize=auto;html=1;entryX=0.5;entryY=0;entryDx=0;entryDy=0;endArrow=none;startFill=0;" edge="1" parent="1" source="u96_dr-zxeYHkRB0BwEC-7" target="LqFIUGVbw8sw-49HCYzh-2">
          <mxGeometry relative="1" as="geometry" />
        </mxCell>
        <mxCell id="u96_dr-zxeYHkRB0BwEC-7" value="Spieldaten" style="whiteSpace=wrap;html=1;align=center;" vertex="1" parent="1">
          <mxGeometry x="480" y="340" width="100" height="40" as="geometry" />
        </mxCell>
        <mxCell id="0Wor8GXt6FMR4Ik6QTlM-8" style="edgeStyle=orthogonalEdgeStyle;rounded=0;orthogonalLoop=1;jettySize=auto;html=1;entryX=0;entryY=0.5;entryDx=0;entryDy=0;endArrow=none;startFill=0;" edge="1" parent="1" source="0Wor8GXt6FMR4Ik6QTlM-1" target="u96_dr-zxeYHkRB0BwEC-7">
          <mxGeometry relative="1" as="geometry" />
        </mxCell>
        <mxCell id="0Wor8GXt6FMR4Ik6QTlM-1" value="hat" style="shape=rhombus;perimeter=rhombusPerimeter;whiteSpace=wrap;html=1;align=center;" vertex="1" parent="1">
          <mxGeometry x="360" y="330" width="85" height="60" as="geometry" />
        </mxCell>
        <mxCell id="0Wor8GXt6FMR4Ik6QTlM-2" value="hat" style="shape=rhombus;perimeter=rhombusPerimeter;whiteSpace=wrap;html=1;align=center;" vertex="1" parent="1">
          <mxGeometry x="630" y="330" width="85" height="60" as="geometry" />
        </mxCell>
        <mxCell id="0Wor8GXt6FMR4Ik6QTlM-16" style="edgeStyle=orthogonalEdgeStyle;rounded=0;orthogonalLoop=1;jettySize=auto;html=1;entryX=0.5;entryY=1;entryDx=0;entryDy=0;endArrow=none;startFill=0;" edge="1" parent="1" source="0Wor8GXt6FMR4Ik6QTlM-3" target="EVIq-oT2bdL4-TLl1Oz5-3">
          <mxGeometry relative="1" as="geometry">
            <Array as="points">
              <mxPoint x="110" y="140" />
            </Array>
          </mxGeometry>
        </mxCell>
        <mxCell id="0Wor8GXt6FMR4Ik6QTlM-3" value="hat" style="shape=rhombus;perimeter=rhombusPerimeter;whiteSpace=wrap;html=1;align=center;" vertex="1" parent="1">
          <mxGeometry x="227.5" y="110" width="85" height="60" as="geometry" />
        </mxCell>
        <mxCell id="0Wor8GXt6FMR4Ik6QTlM-12" style="edgeStyle=orthogonalEdgeStyle;rounded=0;orthogonalLoop=1;jettySize=auto;html=1;entryX=0;entryY=0.5;entryDx=0;entryDy=0;endArrow=none;startFill=0;" edge="1" parent="1" source="0Wor8GXt6FMR4Ik6QTlM-4" target="u96_dr-zxeYHkRB0BwEC-3">
          <mxGeometry relative="1" as="geometry">
            <Array as="points">
              <mxPoint x="902" y="470" />
            </Array>
          </mxGeometry>
        </mxCell>
        <mxCell id="0Wor8GXt6FMR4Ik6QTlM-4" value="ist in" style="shape=rhombus;perimeter=rhombusPerimeter;whiteSpace=wrap;html=1;align=center;" vertex="1" parent="1">
          <mxGeometry x="777.5" y="440" width="85" height="60" as="geometry" />
        </mxCell>
        <mxCell id="0Wor8GXt6FMR4Ik6QTlM-13" style="edgeStyle=orthogonalEdgeStyle;rounded=0;orthogonalLoop=1;jettySize=auto;html=1;entryX=0.5;entryY=1;entryDx=0;entryDy=0;exitX=1;exitY=0.5;exitDx=0;exitDy=0;endArrow=none;startFill=0;" edge="1" parent="1" source="0Wor8GXt6FMR4Ik6QTlM-5" target="u96_dr-zxeYHkRB0BwEC-2">
          <mxGeometry relative="1" as="geometry">
            <Array as="points">
              <mxPoint x="1040" y="310" />
            </Array>
          </mxGeometry>
        </mxCell>
        <mxCell id="0Wor8GXt6FMR4Ik6QTlM-5" value="hat" style="shape=rhombus;perimeter=rhombusPerimeter;whiteSpace=wrap;html=1;align=center;" vertex="1" parent="1">
          <mxGeometry x="910" y="280" width="85" height="60" as="geometry" />
        </mxCell>
        <mxCell id="0Wor8GXt6FMR4Ik6QTlM-19" value="besitzt" style="shape=rhombus;perimeter=rhombusPerimeter;whiteSpace=wrap;html=1;align=center;" vertex="1" parent="1">
          <mxGeometry x="100" y="330" width="85" height="60" as="geometry" />
        </mxCell>
        <mxCell id="0Wor8GXt6FMR4Ik6QTlM-22" value="1" style="text;html=1;align=center;verticalAlign=middle;resizable=0;points=[];autosize=1;strokeColor=none;fillColor=none;" vertex="1" parent="1">
          <mxGeometry x="1010" y="250" width="30" height="30" as="geometry" />
        </mxCell>
        <mxCell id="0Wor8GXt6FMR4Ik6QTlM-23" value="n" style="text;html=1;align=center;verticalAlign=middle;resizable=0;points=[];autosize=1;strokeColor=none;fillColor=none;" vertex="1" parent="1">
          <mxGeometry x="870" y="330" width="30" height="30" as="geometry" />
        </mxCell>
        <mxCell id="0Wor8GXt6FMR4Ik6QTlM-24" value="1" style="text;html=1;align=center;verticalAlign=middle;resizable=0;points=[];autosize=1;strokeColor=none;fillColor=none;" vertex="1" parent="1">
          <mxGeometry x="900" y="440" width="30" height="30" as="geometry" />
        </mxCell>
        <mxCell id="0Wor8GXt6FMR4Ik6QTlM-25" value="n" style="text;html=1;align=center;verticalAlign=middle;resizable=0;points=[];autosize=1;strokeColor=none;fillColor=none;" vertex="1" parent="1">
          <mxGeometry x="815" y="378" width="30" height="30" as="geometry" />
        </mxCell>
        <mxCell id="0Wor8GXt6FMR4Ik6QTlM-27" style="edgeStyle=orthogonalEdgeStyle;rounded=0;orthogonalLoop=1;jettySize=auto;html=1;entryX=0.456;entryY=0.968;entryDx=0;entryDy=0;entryPerimeter=0;endArrow=none;startFill=0;" edge="1" parent="1" source="0Wor8GXt6FMR4Ik6QTlM-19" target="u96_dr-zxeYHkRB0BwEC-6">
          <mxGeometry relative="1" as="geometry">
            <Array as="points">
              <mxPoint x="66" y="360" />
              <mxPoint x="66" y="310" />
            </Array>
          </mxGeometry>
        </mxCell>
        <mxCell id="0Wor8GXt6FMR4Ik6QTlM-28" value="1" style="text;html=1;align=center;verticalAlign=middle;resizable=0;points=[];autosize=1;strokeColor=none;fillColor=none;" vertex="1" parent="1">
          <mxGeometry x="110" y="90" width="30" height="30" as="geometry" />
        </mxCell>
        <mxCell id="0Wor8GXt6FMR4Ik6QTlM-29" value="n" style="text;html=1;align=center;verticalAlign=middle;resizable=0;points=[];autosize=1;strokeColor=none;fillColor=none;" vertex="1" parent="1">
          <mxGeometry x="270" y="310" width="30" height="30" as="geometry" />
        </mxCell>
        <mxCell id="0Wor8GXt6FMR4Ik6QTlM-30" value="1" style="text;html=1;align=center;verticalAlign=middle;resizable=0;points=[];autosize=1;strokeColor=none;fillColor=none;" vertex="1" parent="1">
          <mxGeometry x="60" y="290" width="30" height="30" as="geometry" />
        </mxCell>
        <mxCell id="0Wor8GXt6FMR4Ik6QTlM-32" value="n" style="text;html=1;align=center;verticalAlign=middle;resizable=0;points=[];autosize=1;strokeColor=none;fillColor=none;" vertex="1" parent="1">
          <mxGeometry x="190" y="330" width="30" height="30" as="geometry" />
        </mxCell>
        <mxCell id="JRyliqt_3TO3lA8H6NYk-4" value="1" style="text;html=1;align=center;verticalAlign=middle;resizable=0;points=[];autosize=1;strokeColor=none;fillColor=none;" vertex="1" parent="1">
          <mxGeometry x="530" y="510" width="30" height="30" as="geometry" />
        </mxCell>
        <mxCell id="JRyliqt_3TO3lA8H6NYk-5" value="n" style="text;html=1;align=center;verticalAlign=middle;resizable=0;points=[];autosize=1;strokeColor=none;fillColor=none;" vertex="1" parent="1">
          <mxGeometry x="530" y="380" width="30" height="30" as="geometry" />
        </mxCell>
        <mxCell id="JRyliqt_3TO3lA8H6NYk-6" value="n" style="text;html=1;align=center;verticalAlign=middle;resizable=0;points=[];autosize=1;strokeColor=none;fillColor=none;" vertex="1" parent="1">
          <mxGeometry x="580" y="330" width="30" height="30" as="geometry" />
        </mxCell>
        <mxCell id="JRyliqt_3TO3lA8H6NYk-7" value="1" style="text;html=1;align=center;verticalAlign=middle;resizable=0;points=[];autosize=1;strokeColor=none;fillColor=none;" vertex="1" parent="1">
          <mxGeometry x="740" y="330" width="30" height="30" as="geometry" />
        </mxCell>
        <mxCell id="JRyliqt_3TO3lA8H6NYk-8" value="n" style="text;html=1;align=center;verticalAlign=middle;resizable=0;points=[];autosize=1;strokeColor=none;fillColor=none;" vertex="1" parent="1">
          <mxGeometry x="450" y="330" width="30" height="30" as="geometry" />
        </mxCell>
        <mxCell id="JRyliqt_3TO3lA8H6NYk-9" value="1" style="text;html=1;align=center;verticalAlign=middle;resizable=0;points=[];autosize=1;strokeColor=none;fillColor=none;" vertex="1" parent="1">
          <mxGeometry x="320" y="330" width="30" height="30" as="geometry" />
        </mxCell>
      </root>
    </mxGraphModel>
  </diagram>
</mxfile>
